<svg width="48" height="60" viewBox="0 0 48 60" fill="none" xmlns="http://www.w3.org/2000/svg">
  <defs>
    <linearGradient id="fan-background" x1="9" y1="5" x2="39" y2="48" gradientUnits="userSpaceOnUse">
      <stop stop-color="#60A5FA"/>
      <stop offset="1" stop-color="#4338CA"/>
    </linearGradient>
    <filter id="fan-shadow" x="0" y="0" width="48" height="60" filterUnits="userSpaceOnUse">
      <feDropShadow dx="0" dy="4" stdDeviation="3" flood-color="#312E81" flood-opacity=".35"/>
    </filter>
  </defs>
  <g filter="url(#fan-shadow)">
    <path d="M24 3C12.954 3 4 11.954 4 23c0 14.25 14.012 26.277 18.583 29.82a2.3 2.3 0 0 0 2.834 0C29.988 49.277 44 37.25 44 23 44 11.954 35.046 3 24 3Z" fill="url(#fan-background)"/>
    <path d="M24 4.5C13.783 4.5 5.5 12.783 5.5 23c0 12.894 12.404 24.19 18.001 28.53a.8.8 0 0 0 .998 0C30.096 47.19 42.5 35.894 42.5 23 42.5 12.783 34.217 4.5 24 4.5Z" stroke="white" stroke-opacity=".92" stroke-width="3"/>
    <circle cx="24" cy="22" r="13" fill="white" fill-opacity=".14"/>
    <path d="M24 24.3 22.65 39h2.7L24 24.3Z" fill="white"/>
    <circle cx="24" cy="21.5" r="3" fill="white"/>
    <path d="M22.73 19.52c-1.17-4.95-.64-8.8 1.6-11.54.75 3.66 1.12 7.35 1.1 11.07l-2.7.47Z" fill="white"/>
    <path d="M26.1 20.98c4.86-1.49 8.7-1.2 11.55.85-3.6.98-7.25 1.57-10.96 1.81l-.6-2.66Z" fill="white"/>
    <path d="M23.13 23.88c-3.67 3.5-7.2 5.02-10.62 4.53 2.79-2.48 5.8-4.6 9.03-6.39l1.59 1.86Z" fill="white"/>
  </g>
</svg>
